<svg width="123" height="25" viewBox="0 0 123 25" fill="none" xmlns="http://www.w3.org/2000/svg">
<path d="M11.6373 0.487061H4.20237L0 24.513H6.46518L7.75821 16.8832H11.3141C16.4862 16.8832 21.9816 15.0974 21.9816 7.46758C21.9816 1.9481 17.2944 0.487061 11.6373 0.487061ZM11.799 12.013H8.56636L9.69777 5.68187H11.4757C14.5467 5.68187 15.5164 6.81823 15.5164 8.27927C15.5164 10.7143 14.385 12.013 11.799 12.013Z" fill="white"/>
<path d="M35.3969 0C28.6084 0 21.9816 4.70779 21.9816 14.6104C21.9816 21.4286 26.6689 25 32.6492 25C39.276 25 45.7412 20.2922 45.7412 10.3896C45.7412 3.57143 41.0539 0 35.3969 0ZM32.8108 19.8052C29.7398 19.8052 28.2852 17.5325 28.2852 14.4481C28.2852 8.44156 31.1945 5.35714 34.5887 5.35714C37.6597 5.35714 38.9527 7.46753 38.9527 10.5519C39.1143 16.5584 36.205 19.8052 32.8108 19.8052Z" fill="white"/>
<path d="M96.9777 15.2597C95.8463 18.3442 94.23 19.8052 91.9671 19.8052C89.2194 19.8052 87.9264 17.8571 87.9264 14.7727C87.9264 10.0649 89.7043 5.35714 93.7451 5.35714C96.3311 5.35714 97.1393 7.14286 97.3009 9.25325L103.766 8.76623C103.443 4.38312 101.665 0 94.23 0C86.9566 0 81.6229 5.51948 81.6229 14.9351C81.6229 21.5909 85.8252 25 91.8055 25C97.6242 25 100.695 22.0779 102.796 17.2078L96.9777 15.2597Z" fill="white"/>
<path d="M122.192 5.8442L123 0.487061H106.191L101.988 24.513H119.444L120.252 19.3182H109.423L110.231 14.9351H117.505L118.313 9.74031H111.039L111.848 5.8442H122.192Z" fill="white"/>
<path d="M76.9356 0.487061L74.5112 13.9611L68.3693 0.487061H68.2076H62.0657H61.9041L59.318 15.2598C58.6715 18.5065 57.7017 19.8052 55.2773 19.8052C52.368 19.8052 51.7214 18.1819 52.368 14.7728L54.7924 0.487061H48.3272L45.9028 14.2858C44.7714 20.6169 46.8726 24.8377 54.954 24.8377C56.2471 24.8377 57.3785 24.6754 58.3482 24.513C61.5808 23.7013 63.682 21.9156 64.8134 18.5065C65.1367 17.6949 65.2983 16.7208 65.4599 15.7468L66.2681 11.3637L72.5716 24.6754H78.5519L82.7543 0.487061H76.9356V0.487061Z" fill="white"/>
</svg>
